<?xml version="1.0" encoding="UTF-8"?>
<svg width="64" height="64" viewBox="0 0 64 64" xmlns="http://www.w3.org/2000/svg">
  <defs>
    <linearGradient id="g" x1="0" x2="1" y1="0" y2="1">
      <stop offset="0" stop-color="#06b6d4"/>
      <stop offset="1" stop-color="#10b981"/>
    </linearGradient>
  </defs>
  <rect rx="12" width="64" height="64" fill="url(#g)"/>
  <g transform="translate(10,10)" fill="#fff">
    <path d="M22 2c-6.6 0-12 5.4-12 12 0 5.5 3.8 10.1 9 11.4V30h6v-4.6c5.2-1.3 9-5.9 9-11.4 0-6.6-5.4-12-12-12zM16 14c0-3.3 2.7-6 6-6s6 2.7 6 6-2.7 6-6 6-6-2.7-6-6z"/>
  </g>
</svg>
